<svg
  width="133"
  height="45"
  viewBox="0 0 133 45"
  fill="none"
  xmlns="http://www.w3.org/2000/svg"
>
  <g clip-path="url(#clip0_11620_72329)">
    <path
      d="M43.4184 27.9983C42.3642 32.2274 40.0794 36.049 36.8531 38.9796C33.6267 41.9102 29.6037 43.8182 25.2928 44.4623C20.9819 45.1064 16.5768 44.4577 12.6347 42.5981C8.69252 40.7386 5.39041 37.7518 3.14599 34.0155C0.901569 30.2792 -0.18435 25.9612 0.0255803 21.6077C0.23551 17.2543 1.73186 13.0608 4.32537 9.55778C6.91888 6.05475 10.4931 3.39949 14.5958 1.92785C18.6986 0.456207 23.1457 0.23428 27.3746 1.29014C33.0419 2.70789 37.9148 6.31697 40.923 11.3247C43.9312 16.3324 44.8287 22.3293 43.4184 27.9983Z"
      fill="url(#paint0_linear_11620_72329)"
    />
    <path
      d="M43.4184 27.9983C42.3642 32.2274 40.0794 36.049 36.8531 38.9796C33.6267 41.9102 29.6037 43.8182 25.2928 44.4623C20.9819 45.1064 16.5768 44.4577 12.6347 42.5981C8.69252 40.7386 5.39041 37.7518 3.14599 34.0155C0.901569 30.2792 -0.18435 25.9612 0.0255803 21.6077C0.23551 17.2543 1.73186 13.0608 4.32537 9.55778C6.91888 6.05475 10.4931 3.39949 14.5958 1.92785C18.6986 0.456207 23.1457 0.23428 27.3746 1.29014C33.0419 2.70789 37.9148 6.31697 40.923 11.3247C43.9312 16.3324 44.8287 22.3293 43.4184 27.9983Z"
      fill="#07D2DF"
    />
    <path
      d="M43.4184 27.9983C42.3642 32.2274 40.0794 36.049 36.8531 38.9796C33.6267 41.9102 29.6037 43.8182 25.2928 44.4623C20.9819 45.1064 16.5768 44.4577 12.6347 42.5981C8.69252 40.7386 5.39041 37.7518 3.14599 34.0155C0.901569 30.2792 -0.18435 25.9612 0.0255803 21.6077C0.23551 17.2543 1.73186 13.0608 4.32537 9.55778C6.91888 6.05475 10.4931 3.39949 14.5958 1.92785C18.6986 0.456207 23.1457 0.23428 27.3746 1.29014C33.0419 2.70789 37.9148 6.31697 40.923 11.3247C43.9312 16.3324 44.8287 22.3293 43.4184 27.9983Z"
      fill="url(#paint1_linear_11620_72329)"
    />
    <path
      fill-rule="evenodd"
      clip-rule="evenodd"
      d="M33.7794 13.2926L33.286 12.8294C31.8049 11.5056 30.1003 10.4556 28.2517 9.72828C26.3944 8.98485 24.4124 8.60212 22.4119 8.60059C18.1996 8.6246 14.1608 10.2813 11.145 13.2221C10.4526 13.8934 9.81297 14.6171 9.23198 15.3869C8.67531 16.1298 8.17067 16.9103 7.72168 17.7228L11.9606 21.5388C12.362 20.6774 12.8585 19.8635 13.4407 19.1123C14.024 18.3347 14.7003 17.6314 15.4544 17.018C17.4251 15.35 19.9207 14.4302 22.5025 14.4203H23.0563C25.2416 14.5357 27.3438 15.296 29.0975 16.6052L29.6412 17.018L15.9176 29.3723C17.6701 30.6821 19.7735 31.4394 21.9588 31.5471L33.0343 21.5791L37.2329 17.8033C36.7766 16.9606 36.2583 16.1529 35.6824 15.3869C35.1052 14.6389 34.4688 13.9385 33.7794 13.2926Z"
      fill="white"
    />
    <path
      fill-rule="evenodd"
      clip-rule="evenodd"
      d="M29.5301 28.338C27.5581 30.0038 25.0633 30.9232 22.482 30.9358C20.6807 30.9315 18.9089 30.4782 17.3269 29.6168C17.045 29.4657 16.8335 29.3449 16.6321 29.214L16.5415 29.1536C16.3301 29.0227 16.1287 28.8818 15.9273 28.7307C15.726 28.5797 15.5548 28.4589 15.3836 28.3179L29.0468 16.0039C27.2943 14.6941 25.1909 13.9368 23.0056 13.8291L11.9301 23.7971L7.73145 27.5728C8.18543 28.417 8.70383 29.2249 9.28202 29.9893C9.84341 30.7381 10.4665 31.4387 11.1447 32.0836C14.135 35.075 18.1875 36.7615 22.4172 36.7747C26.6468 36.7879 30.7098 35.1268 33.7187 32.1541C34.4171 31.4856 35.0602 30.7616 35.6418 29.9893C36.1985 29.2464 36.7031 28.4659 37.1521 27.6534L32.9132 23.8374C32.5263 24.6895 32.0468 25.4965 31.4834 26.2438C30.9188 27.0178 30.2629 27.7209 29.5301 28.338Z"
      fill="white"
    />
  </g>
  <path
    d="M56.2462 23.8877V20.8042L63.3279 12.7818L63.7199 13.5918H56.403V10.6651H66.7511V13.6964L60.166 21.771L60.0353 20.778H66.7511V23.8877H56.2462ZM75.0136 24.2797C74.2123 24.2797 73.4545 24.2013 72.7402 24.0445C72.0433 23.9051 71.4249 23.6699 70.8848 23.3389C70.3622 22.9905 69.9528 22.5289 69.6567 21.954C69.3605 21.3616 69.2124 20.63 69.2124 19.7589C69.2124 18.9401 69.3779 18.2258 69.7089 17.6161C70.0573 17.0064 70.58 16.536 71.2768 16.205C71.9737 15.874 72.8534 15.7085 73.9161 15.7085C74.5084 15.7085 75.0833 15.7695 75.6408 15.8914C76.1983 16.0134 76.6948 16.1789 77.1303 16.3879C77.5832 16.597 77.9404 16.8234 78.2017 17.0673L78.3585 18.9488C78.0101 18.7398 77.592 18.5743 77.1042 18.4523C76.6164 18.3304 76.0937 18.2694 75.5363 18.2694C74.6826 18.2694 74.0555 18.4001 73.6548 18.6614C73.2715 18.9053 73.0799 19.2972 73.0799 19.8373C73.0799 20.1683 73.1757 20.4645 73.3673 20.7258C73.559 20.9871 73.8116 21.1874 74.1252 21.3268C74.4562 21.4662 74.7959 21.5358 75.1443 21.5358C76.0328 21.5358 76.6512 21.4749 76.9996 21.3529C77.3655 21.231 77.5484 20.9871 77.5484 20.6212V15.7608C77.5484 14.9594 77.2871 14.3845 76.7645 14.0361C76.2592 13.6702 75.5363 13.4873 74.5955 13.4873C73.829 13.4873 73.0538 13.6267 72.2698 13.9054C71.5033 14.1667 70.8761 14.489 70.3883 14.8723V11.4229C70.8413 11.1442 71.5381 10.8829 72.4789 10.639C73.437 10.3951 74.5084 10.2731 75.6931 10.2731C76.1112 10.2731 76.5728 10.308 77.078 10.3776C77.5832 10.4473 78.0885 10.578 78.5937 10.7696C79.0989 10.9438 79.5605 11.2051 79.9786 11.5536C80.4142 11.902 80.7626 12.3462 81.0239 12.8863C81.2852 13.4263 81.4159 14.097 81.4159 14.8984L81.3898 21.1439C81.3898 21.893 81.1371 22.5027 80.6319 22.9731C80.1267 23.426 79.395 23.757 78.4369 23.9661C77.4961 24.1751 76.3551 24.2797 75.0136 24.2797ZM97.4154 15.0029V23.8877H93.5218V15.7869C93.5218 15.4559 93.4695 15.151 93.365 14.8723C93.2779 14.5935 93.1385 14.3584 92.9469 14.1667C92.7552 13.9577 92.4939 13.8009 92.1629 13.6964C91.8319 13.5744 91.4312 13.5134 90.9609 13.5134C90.5602 13.5134 90.1856 13.5657 89.8372 13.6702C89.5062 13.7573 89.2362 13.8532 89.0271 13.9577V23.8877H85.1335V11.7888C85.4645 11.6145 85.9 11.4403 86.4401 11.2661C86.9802 11.0745 87.5725 10.909 88.217 10.7696C88.8616 10.6303 89.5062 10.517 90.1508 10.4299C90.8128 10.3428 91.4225 10.2993 91.98 10.2993C93.1646 10.2993 94.1576 10.456 94.959 10.7696C95.7778 11.0658 96.3875 11.5536 96.7882 12.233C97.2063 12.9124 97.4154 13.8357 97.4154 15.0029ZM93.4172 12.6772C93.9573 12.2069 94.6106 11.7975 95.3771 11.449C96.1436 11.0832 96.9537 10.8045 97.8074 10.6128C98.661 10.4038 99.4536 10.2993 100.185 10.2993C101.37 10.2993 102.363 10.456 103.164 10.7696C103.983 11.0658 104.593 11.5536 104.994 12.233C105.412 12.9124 105.621 13.8357 105.621 15.0029V23.8877H101.727V15.7869C101.727 15.4559 101.675 15.151 101.57 14.8723C101.483 14.5935 101.344 14.3584 101.152 14.1667C100.961 13.9577 100.699 13.8009 100.368 13.6964C100.037 13.5744 99.6366 13.5134 99.1662 13.5134C98.7655 13.5134 98.391 13.5744 98.0425 13.6964C97.7115 13.8009 97.4415 13.9403 97.2325 14.1145L93.4172 12.6772ZM109.41 23.8877V10.848H113.304L113.33 23.8877H109.41ZM109.332 8.86201V5.85688H113.356V8.86201H109.332ZM123.028 24.2797C120.798 24.2797 119.117 23.6874 117.985 22.5027C116.87 21.3007 116.312 19.5411 116.312 17.2241C116.312 14.7329 116.879 12.9473 118.011 11.8671C119.161 10.7696 120.833 10.2209 123.028 10.2209C124.509 10.2209 125.746 10.4735 126.739 10.9787C127.749 11.4665 128.507 12.2243 129.012 13.2521C129.535 14.28 129.796 15.604 129.796 17.2241C129.796 19.5411 129.213 21.3007 128.046 22.5027C126.878 23.6874 125.206 24.2797 123.028 24.2797ZM123.028 21.17C123.673 21.17 124.204 21.0219 124.622 20.7258C125.058 20.4122 125.38 19.968 125.589 19.3931C125.816 18.8007 125.929 18.0778 125.929 17.2241C125.929 16.2486 125.816 15.482 125.589 14.9245C125.38 14.3497 125.058 13.9403 124.622 13.6964C124.187 13.435 123.655 13.3044 123.028 13.3044C122.366 13.3044 121.826 13.435 121.408 13.6964C120.99 13.9577 120.676 14.3758 120.467 14.9507C120.276 15.5082 120.18 16.266 120.18 17.2241C120.18 18.5481 120.406 19.5411 120.859 20.2031C121.33 20.8477 122.053 21.17 123.028 21.17Z"
    fill="#1C1F22"
  />
  <path
    d="M79.0328 37.6982V37.1L82.7023 31.6223H78.9929V30.8911H83.6861V31.4894L80.0167 36.967H83.726V37.6982H79.0328ZM85.4815 37.6982H84.6173L87.1168 30.8911H87.9677L90.4672 37.6982H89.603L87.5689 31.968H87.5157L85.4815 37.6982ZM85.8006 35.0392H89.2839V35.7704H85.8006V35.0392ZM91.6211 30.8911H92.6049L94.9183 36.5416H94.9981L97.3114 30.8911H98.2953V37.6982H97.5241V32.5264H97.4577L95.3304 37.6982H94.5859L92.4587 32.5264H92.3922V37.6982H91.6211V30.8911ZM102.395 31.6223V30.8911H107.501V31.6223H105.36V37.6982H104.536V31.6223H102.395ZM110.094 37.8046C109.633 37.8046 109.229 37.6949 108.881 37.4755C108.535 37.2562 108.265 36.9493 108.07 36.5549C107.877 36.1604 107.78 35.6995 107.78 35.1722C107.78 34.6404 107.877 34.1761 108.07 33.7795C108.265 33.3828 108.535 33.0748 108.881 32.8555C109.229 32.6361 109.633 32.5264 110.094 32.5264C110.555 32.5264 110.958 32.6361 111.304 32.8555C111.652 33.0748 111.922 33.3828 112.115 33.7795C112.31 34.1761 112.407 34.6404 112.407 35.1722C112.407 35.6995 112.31 36.1604 112.115 36.5549C111.922 36.9493 111.652 37.2562 111.304 37.4755C110.958 37.6949 110.555 37.8046 110.094 37.8046ZM110.094 37.1C110.444 37.1 110.732 37.0102 110.958 36.8307C111.184 36.6512 111.351 36.4153 111.46 36.1228C111.568 35.8303 111.623 35.5134 111.623 35.1722C111.623 34.8309 111.568 34.5129 111.46 34.2182C111.351 33.9235 111.184 33.6853 110.958 33.5036C110.732 33.3219 110.444 33.2311 110.094 33.2311C109.744 33.2311 109.456 33.3219 109.23 33.5036C109.004 33.6853 108.836 33.9235 108.728 34.2182C108.619 34.5129 108.565 34.8309 108.565 35.1722C108.565 35.5134 108.619 35.8303 108.728 36.1228C108.836 36.4153 109.004 36.6512 109.23 36.8307C109.456 37.0102 109.744 37.1 110.094 37.1ZM114.429 35.8369L114.416 34.8664H114.576L116.809 32.5929H117.78L115.4 34.9993H115.334L114.429 35.8369ZM113.698 37.6982V30.8911H114.483V37.6982H113.698ZM116.942 37.6982L114.948 35.1722L115.506 34.6271L117.939 37.6982H116.942ZM120.813 37.8046C120.321 37.8046 119.897 37.696 119.54 37.4789C119.186 37.2595 118.912 36.9537 118.719 36.5615C118.529 36.1671 118.433 35.7084 118.433 35.1855C118.433 34.6625 118.529 34.2016 118.719 33.8028C118.912 33.4017 119.18 33.0892 119.524 32.8654C119.869 32.6394 120.273 32.5264 120.734 32.5264C120.999 32.5264 121.262 32.5707 121.521 32.6594C121.781 32.748 122.017 32.892 122.229 33.0915C122.442 33.2887 122.611 33.5501 122.738 33.8759C122.864 34.2016 122.927 34.6027 122.927 35.0791V35.4115H118.992V34.7334H122.13C122.13 34.4454 122.072 34.1883 121.957 33.9623C121.844 33.7363 121.682 33.5579 121.471 33.4272C121.263 33.2964 121.017 33.2311 120.734 33.2311C120.421 33.2311 120.151 33.3086 119.923 33.4637C119.697 33.6166 119.523 33.8161 119.401 34.062C119.279 34.308 119.218 34.5717 119.218 34.8531V35.3051C119.218 35.6907 119.284 36.0175 119.417 36.2856C119.552 36.5515 119.74 36.7543 119.979 36.8939C120.218 37.0313 120.496 37.1 120.813 37.1C121.019 37.1 121.206 37.0712 121.372 37.0135C121.54 36.9537 121.685 36.8651 121.807 36.7476C121.929 36.628 122.023 36.4795 122.09 36.3022L122.847 36.515C122.768 36.772 122.634 36.998 122.445 37.193C122.257 37.3858 122.024 37.5365 121.747 37.6451C121.47 37.7514 121.159 37.8046 120.813 37.8046ZM124.998 34.6271V37.6982H124.214V32.5929H124.972V33.3906H125.038C125.158 33.1313 125.34 32.9231 125.583 32.7657C125.827 32.6062 126.142 32.5264 126.527 32.5264C126.873 32.5264 127.176 32.5973 127.435 32.7391C127.694 32.8787 127.896 33.0915 128.04 33.3773C128.184 33.6609 128.256 34.0199 128.256 34.4542V37.6982H127.471V34.5074C127.471 34.1063 127.367 33.7939 127.159 33.5701C126.951 33.3441 126.665 33.2311 126.301 33.2311C126.051 33.2311 125.827 33.2854 125.63 33.3939C125.435 33.5025 125.281 33.6609 125.168 33.8692C125.055 34.0775 124.998 34.3301 124.998 34.6271Z"
    fill="#717A88"
  />
  <defs>
    <linearGradient
      id="paint0_linear_11620_72329"
      x1="44.4054"
      y1="0.967872"
      x2="0.32476"
      y2="43.7312"
      gradientUnits="userSpaceOnUse"
    >
      <stop stop-color="#31E566" />
      <stop offset="1" stop-color="#00C6FE" />
    </linearGradient>
    <linearGradient
      id="paint1_linear_11620_72329"
      x1="9.64042"
      y1="3.61773"
      x2="31.6757"
      y2="43.3271"
      gradientUnits="userSpaceOnUse"
    >
      <stop stop-color="#55F89D" />
      <stop offset="1" stop-color="#0ED6D9" />
    </linearGradient>
    <clipPath id="clip0_11620_72329">
      <rect
        width="44.0705"
        height="44.0705"
        fill="white"
        transform="translate(0 0.633789)"
      />
    </clipPath>
  </defs>
</svg>
